<svg width="600" height="139" viewBox="0 0 600 139" fill="none" xmlns="http://www.w3.org/2000/svg">
<path fill-rule="evenodd" clip-rule="evenodd" d="M27.2656 15.8632H126.411C128.601 15.8632 130.377 17.6388 130.377 19.829V25.4424C132.124 25.0137 133.95 24.7863 135.83 24.7863C139.58 24.7863 143.119 25.6917 146.24 27.2958V19.829C146.24 8.87776 137.362 0 126.411 0H27.2656C16.3143 0 7.43652 8.87776 7.43652 19.829V39.9375C10.4344 38.4879 13.7978 37.6752 17.351 37.6752C19.409 37.6752 21.4033 37.9478 23.2998 38.4589V19.829C23.2998 17.6388 25.0753 15.8632 27.2656 15.8632ZM23.2998 82.4983C21.4033 83.0093 19.409 83.282 17.351 83.282C13.7978 83.282 10.4344 82.4693 7.43652 81.0196V118.974C7.43652 129.926 16.3143 138.803 27.2656 138.803H62.4621V122.94H27.2656C25.0753 122.94 23.2998 121.164 23.2998 118.974V82.4983ZM130.377 118.974V69.737C132.124 70.1657 133.95 70.3931 135.83 70.3931C139.58 70.3931 143.119 69.4877 146.24 67.8835V118.974C146.24 129.926 137.362 138.803 126.411 138.803H66.9236V122.94H126.411C128.601 122.94 130.377 121.164 130.377 118.974Z" fill="#FF2E00"/>
<path fill-rule="evenodd" clip-rule="evenodd" d="M122.693 56.0172H95.6759C90.7879 56.0172 86.651 59.2328 85.2652 63.6641C82.5297 57.8858 77.9084 53.1745 72.196 50.3246C77.4039 42.971 85.9793 38.171 95.6759 38.171H122.693V56.0172ZM66.9238 67.5325V123.347H84.77V116.496H70.6417V75.8462C70.6417 72.5428 69.2057 69.5749 66.9238 67.5325Z" fill="#FF2E00"/>
<path fill-rule="evenodd" clip-rule="evenodd" d="M56.0181 69.8974H27.7617V52.0513H56.0181C71.8974 52.0513 84.7702 64.924 84.7702 80.8034V123.436H66.9241V80.8034C66.9241 74.7802 62.0413 69.8974 56.0181 69.8974Z" fill="#FF2E00"/>
<path fill-rule="evenodd" clip-rule="evenodd" d="M17.1025 77.8287C26.548 77.8287 34.2051 70.1717 34.2051 60.7262C34.2051 51.2807 26.548 43.6237 17.1025 43.6237C7.65707 43.6237 0 51.2807 0 60.7262C0 70.1717 7.65707 77.8287 17.1025 77.8287ZM17.3504 69.8971C22.2785 69.8971 26.2735 65.9021 26.2735 60.9741C26.2735 56.046 22.2785 52.051 17.3504 52.051C12.4223 52.051 8.42734 56.046 8.42734 60.9741C8.42734 65.9021 12.4223 69.8971 17.3504 69.8971Z" fill="#FF2E00"/>
<path fill-rule="evenodd" clip-rule="evenodd" d="M135.582 64.4441C145.027 64.4441 152.684 56.787 152.684 47.3416C152.684 37.8961 145.027 30.239 135.582 30.239C126.136 30.239 118.479 37.8961 118.479 47.3416C118.479 56.787 126.136 64.4441 135.582 64.4441ZM135.829 57.0082C140.757 57.0082 144.752 53.0132 144.752 48.0851C144.752 43.1571 140.757 39.1621 135.829 39.1621C130.901 39.1621 126.906 43.1571 126.906 48.0851C126.906 53.0132 130.901 57.0082 135.829 57.0082Z" fill="#FF2E00"/>
<path d="M213.448 45.6781V54.3711H201.645V90.222H190.795V54.3711H178.993V45.6781H213.448Z" fill="white"/>
<path d="M252.269 71.9476C252.269 72.9628 252.206 74.0204 252.079 75.1202H227.523C227.692 77.3199 228.39 79.012 229.617 80.1964C230.886 81.3386 232.43 81.9097 234.249 81.9097C236.956 81.9097 238.839 80.7675 239.896 78.4832H251.445C250.852 80.8098 249.774 82.9038 248.208 84.7651C246.686 86.6263 244.761 88.0858 242.434 89.1433C240.108 90.2009 237.506 90.7296 234.629 90.7296C231.161 90.7296 228.073 89.9893 225.365 88.5088C222.658 87.0282 220.543 84.9131 219.02 82.1635C217.497 79.4139 216.736 76.1989 216.736 72.5186C216.736 68.8384 217.476 65.6234 218.957 62.8738C220.479 60.1242 222.595 58.0091 225.302 56.5285C228.009 55.0479 231.118 54.3077 234.629 54.3077C238.056 54.3077 241.102 55.0268 243.767 56.4651C246.432 57.9033 248.505 59.955 249.985 62.62C251.508 65.285 252.269 68.3942 252.269 71.9476ZM241.165 69.0922C241.165 67.2309 240.531 65.7503 239.262 64.6505C237.992 63.5506 236.406 63.0007 234.503 63.0007C232.684 63.0007 231.14 63.5295 229.871 64.587C228.644 65.6446 227.882 67.1463 227.586 69.0922H241.165Z" fill="white"/>
<path d="M255.836 72.5186C255.836 68.8384 256.576 65.6234 258.057 62.8738C259.58 60.1242 261.674 58.0091 264.339 56.5285C267.046 55.0479 270.134 54.3077 273.603 54.3077C278.045 54.3077 281.746 55.471 284.707 57.7976C287.711 60.1242 289.678 63.4026 290.608 67.6328H279.06C278.087 64.9254 276.205 63.5718 273.413 63.5718C271.424 63.5718 269.838 64.3544 268.654 65.9195C267.469 67.4424 266.877 69.6421 266.877 72.5186C266.877 75.3952 267.469 77.616 268.654 79.1812C269.838 80.7041 271.424 81.4655 273.413 81.4655C276.205 81.4655 278.087 80.1118 279.06 77.4045H290.608C289.678 81.5501 287.711 84.8074 284.707 87.1763C281.704 89.5452 278.002 90.7296 273.603 90.7296C270.134 90.7296 267.046 89.9893 264.339 88.5088C261.674 87.0282 259.58 84.9131 258.057 82.1635C256.576 79.4139 255.836 76.1989 255.836 72.5186Z" fill="white"/>
<path d="M318.177 54.4346C322.238 54.4346 325.495 55.7882 327.948 58.4955C330.402 61.1606 331.629 64.8408 331.629 69.5364V90.222H320.842V70.9958C320.842 68.6269 320.228 66.7867 319.002 65.4754C317.775 64.164 316.125 63.5083 314.052 63.5083C311.979 63.5083 310.33 64.164 309.103 65.4754C307.876 66.7867 307.263 68.6269 307.263 70.9958V90.222H296.412V43.2668H307.263V59.5742C308.363 58.0091 309.864 56.7612 311.768 55.8305C313.671 54.8999 315.808 54.4346 318.177 54.4346Z" fill="white"/>
<path d="M360.743 54.4346C364.888 54.4346 368.188 55.7882 370.641 58.4955C373.137 61.1606 374.385 64.8408 374.385 69.5364V90.222H363.598V70.9958C363.598 68.6269 362.985 66.7867 361.758 65.4754C360.531 64.164 358.881 63.5083 356.809 63.5083C354.736 63.5083 353.086 64.164 351.859 65.4754C350.632 66.7867 350.019 68.6269 350.019 70.9958V90.222H339.169V54.8153H350.019V59.5108C351.119 57.9456 352.6 56.7189 354.461 55.8305C356.322 54.8999 358.416 54.4346 360.743 54.4346Z" fill="white"/>
<path d="M398.042 90.7296C394.573 90.7296 391.443 89.9893 388.651 88.5088C385.901 87.0282 383.723 84.9131 382.115 82.1635C380.55 79.4139 379.768 76.1989 379.768 72.5186C379.768 68.8807 380.571 65.6869 382.179 62.9373C383.786 60.1453 385.986 58.0091 388.778 56.5285C391.57 55.0479 394.7 54.3077 398.169 54.3077C401.638 54.3077 404.768 55.0479 407.56 56.5285C410.352 58.0091 412.552 60.1453 414.159 62.9373C415.767 65.6869 416.57 68.8807 416.57 72.5186C416.57 76.1566 415.745 79.3716 414.096 82.1635C412.488 84.9131 410.267 87.0282 407.433 88.5088C404.641 89.9893 401.511 90.7296 398.042 90.7296ZM398.042 81.3386C400.115 81.3386 401.87 80.5772 403.309 79.0543C404.789 77.5314 405.53 75.3529 405.53 72.5186C405.53 69.6844 404.81 67.5059 403.372 65.983C401.976 64.4601 400.242 63.6987 398.169 63.6987C396.054 63.6987 394.298 64.4601 392.902 65.983C391.506 67.4636 390.808 69.6421 390.808 72.5186C390.808 75.3529 391.485 77.5314 392.839 79.0543C394.235 80.5772 395.969 81.3386 398.042 81.3386Z" fill="white"/>
<path d="M458.489 90.2219L449.225 73.4069H446.623V90.2219H435.772V45.678H453.983C457.495 45.678 460.477 46.2913 462.93 47.5181C465.426 48.7448 467.287 50.4369 468.514 52.5943C469.741 54.7094 470.354 57.0783 470.354 59.7011C470.354 62.6622 469.508 65.3061 467.816 67.6327C466.166 69.9593 463.713 71.6091 460.456 72.582L470.735 90.2219H458.489ZM446.623 65.7291H453.349C455.337 65.7291 456.818 65.2426 457.791 64.2697C458.806 63.2967 459.314 61.9219 459.314 60.1452C459.314 58.4531 458.806 57.1206 457.791 56.1477C456.818 55.1747 455.337 54.6883 453.349 54.6883H446.623V65.7291Z" fill="#FF2E00"/>
<path d="M482.623 51.1349C480.719 51.1349 479.154 50.585 477.927 49.4851C476.743 48.343 476.15 46.947 476.15 45.2972C476.15 43.6052 476.743 42.2092 477.927 41.1093C479.154 39.9672 480.719 39.3961 482.623 39.3961C484.484 39.3961 486.007 39.9672 487.191 41.1093C488.418 42.2092 489.031 43.6052 489.031 45.2972C489.031 46.947 488.418 48.343 487.191 49.4851C486.007 50.585 484.484 51.1349 482.623 51.1349ZM488.016 54.8152V90.2219H477.166V54.8152H488.016Z" fill="#FF2E00"/>
<path d="M493.722 72.4551C493.722 68.8171 494.399 65.6233 495.752 62.8737C497.148 60.1241 499.031 58.009 501.4 56.5284C503.769 55.0478 506.412 54.3076 509.331 54.3076C511.658 54.3076 513.773 54.794 515.677 55.767C517.622 56.7399 519.145 58.0513 520.245 59.7011V43.2667H531.096V90.2219H520.245V85.1457C519.23 86.8377 517.77 88.1914 515.867 89.2067C514.006 90.2219 511.827 90.7295 509.331 90.7295C506.412 90.7295 503.769 89.9892 501.4 88.5087C499.031 86.9858 497.148 84.8496 495.752 82.0999C494.399 79.308 493.722 76.0931 493.722 72.4551ZM520.245 72.5185C520.245 69.8112 519.484 67.675 517.961 66.1098C516.48 64.5446 514.661 63.762 512.504 63.762C510.346 63.762 508.506 64.5446 506.983 66.1098C505.503 67.6327 504.763 69.7478 504.763 72.4551C504.763 75.1624 505.503 77.3198 506.983 78.9273C508.506 80.4925 510.346 81.275 512.504 81.275C514.661 81.275 516.48 80.4925 517.961 78.9273C519.484 77.3621 520.245 75.2259 520.245 72.5185Z" fill="#FF2E00"/>
<path d="M572.322 71.9475C572.322 72.9627 572.258 74.0203 572.131 75.1201H547.575C547.744 77.3198 548.442 79.0119 549.669 80.1963C550.938 81.3385 552.482 81.9096 554.301 81.9096C557.008 81.9096 558.891 80.7674 559.948 78.4831H571.497C570.905 80.8097 569.826 82.9037 568.261 84.765C566.738 86.6262 564.813 88.0857 562.486 89.1432C560.16 90.2008 557.558 90.7295 554.682 90.7295C551.213 90.7295 548.125 89.9892 545.418 88.5087C542.71 87.0281 540.595 84.913 539.072 82.1634C537.549 79.4138 536.788 76.1988 536.788 72.5185C536.788 68.8383 537.528 65.6233 539.009 62.8737C540.532 60.1241 542.647 58.009 545.354 56.5284C548.062 55.0478 551.171 54.3076 554.682 54.3076C558.108 54.3076 561.154 55.0267 563.819 56.465C566.484 57.9032 568.557 59.9549 570.037 62.6199C571.56 65.2849 572.322 68.3941 572.322 71.9475ZM561.217 69.0921C561.217 67.2308 560.583 65.7502 559.314 64.6504C558.045 63.5505 556.458 63.0006 554.555 63.0006C552.736 63.0006 551.192 63.5294 549.923 64.5869C548.696 65.6445 547.935 67.1462 547.638 69.0921H561.217Z" fill="#FF2E00"/>
<path d="M588.896 60.7163C590.165 58.7704 591.752 57.2475 593.655 56.1477C595.559 55.0055 597.674 54.4345 600.001 54.4345V65.9194H597.018C594.311 65.9194 592.28 66.5117 590.927 67.6961C589.573 68.8383 588.896 70.8688 588.896 73.7876V90.2219H578.046V54.8152H588.896V60.7163Z" fill="#FF2E00"/>
</svg>
