<svg width="125" height="29" viewBox="0 0 125 29" fill="none" xmlns="http://www.w3.org/2000/svg">
<path fill-rule="evenodd" clip-rule="evenodd" d="M5.68036 3.30483H26.3356C26.7919 3.30483 27.1618 3.67474 27.1618 4.13104V5.30049C27.5258 5.21117 27.9063 5.1638 28.2978 5.1638C29.0791 5.1638 29.8164 5.35243 30.4666 5.68662V4.13104C30.4666 1.84953 28.6171 0 26.3356 0H5.68036C3.39885 0 1.54932 1.84953 1.54932 4.13104V8.32029C2.17387 8.01829 2.87458 7.84898 3.61484 7.84898C4.04358 7.84898 4.45905 7.90577 4.85415 8.01225V4.13104C4.85415 3.67474 5.22406 3.30483 5.68036 3.30483ZM4.85415 17.1871C4.45905 17.2936 4.04358 17.3504 3.61484 17.3504C2.87458 17.3504 2.17387 17.1811 1.54932 16.8791V24.7862C1.54932 27.0678 3.39885 28.9173 5.68036 28.9173H13.013V25.6125H5.68036C5.22406 25.6125 4.85415 25.2425 4.85415 24.7862V17.1871ZM27.1618 24.7862V14.5285C27.5258 14.6178 27.9063 14.6652 28.2978 14.6652C29.0791 14.6652 29.8164 14.4766 30.4666 14.1424V24.7862C30.4666 27.0678 28.6171 28.9173 26.3356 28.9173H13.9424V25.6125H26.3356C26.7919 25.6125 27.1618 25.2425 27.1618 24.7862Z" fill="#FF2E00"/>
<path fill-rule="evenodd" clip-rule="evenodd" d="M25.5609 11.6702H19.9324C18.9141 11.6702 18.0522 12.3401 17.7635 13.2633C17.1936 12.0595 16.2308 11.078 15.0408 10.4843C16.1257 8.95227 17.9123 7.95227 19.9324 7.95227H25.5609V11.6702ZM13.9424 14.0692V25.6973H17.6603V24.2699H14.7169V15.8012C14.7169 15.113 14.4178 14.4947 13.9424 14.0692Z" fill="#FF2E00"/>
<path fill-rule="evenodd" clip-rule="evenodd" d="M11.6704 14.5619H5.78369V10.844H11.6704C14.9786 10.844 17.6604 13.5258 17.6604 16.834V25.7157H13.9425V16.834C13.9425 15.5792 12.9253 14.5619 11.6704 14.5619Z" fill="#FF2E00"/>
<path fill-rule="evenodd" clip-rule="evenodd" d="M3.56302 16.2143C5.53083 16.2143 7.12605 14.6191 7.12605 12.6513C7.12605 10.6835 5.53083 9.08826 3.56302 9.08826C1.59522 9.08826 0 10.6835 0 12.6513C0 14.6191 1.59522 16.2143 3.56302 16.2143ZM3.61466 14.5619C4.64134 14.5619 5.47363 13.7296 5.47363 12.7029C5.47363 11.6762 4.64134 10.8439 3.61466 10.8439C2.58798 10.8439 1.75569 11.6762 1.75569 12.7029C1.75569 13.7296 2.58798 14.5619 3.61466 14.5619Z" fill="#FF2E00"/>
<path fill-rule="evenodd" clip-rule="evenodd" d="M28.2461 13.4259C30.2139 13.4259 31.8092 11.8306 31.8092 9.86283C31.8092 7.89502 30.2139 6.2998 28.2461 6.2998C26.2783 6.2998 24.6831 7.89502 24.6831 9.86283C24.6831 11.8306 26.2783 13.4259 28.2461 13.4259ZM28.2978 11.8767C29.3244 11.8767 30.1567 11.0444 30.1567 10.0177C30.1567 8.99106 29.3244 8.15877 28.2978 8.15877C27.2711 8.15877 26.4388 8.99106 26.4388 10.0177C26.4388 11.0444 27.2711 11.8767 28.2978 11.8767Z" fill="#FF2E00"/>
<path d="M44.4681 9.51625V11.3273H42.0093V18.7962H39.7488V11.3273H37.29V9.51625H44.4681Z" fill="white"/>
<path d="M52.556 14.9891C52.556 15.2006 52.5428 15.4209 52.5163 15.65H47.4005C47.4357 16.1083 47.5811 16.4608 47.8367 16.7076C48.1011 16.9455 48.4227 17.0645 48.8017 17.0645C49.3657 17.0645 49.7579 16.8265 49.9782 16.3506H52.3841C52.2608 16.8354 52.036 17.2716 51.71 17.6594C51.3927 18.0471 50.9917 18.3512 50.507 18.5715C50.0223 18.7918 49.4803 18.902 48.881 18.902C48.1584 18.902 47.515 18.7478 46.951 18.4393C46.387 18.1308 45.9463 17.6902 45.6291 17.1174C45.3118 16.5445 45.1532 15.8747 45.1532 15.108C45.1532 14.3413 45.3074 13.6715 45.6158 13.0987C45.9331 12.5259 46.3738 12.0852 46.9378 11.7768C47.5018 11.4683 48.1495 11.3141 48.881 11.3141C49.5949 11.3141 50.2294 11.4639 50.7846 11.7635C51.3398 12.0632 51.7716 12.4906 52.0801 13.0458C52.3974 13.601 52.556 14.2488 52.556 14.9891ZM50.2426 14.3942C50.2426 14.0064 50.1104 13.698 49.846 13.4688C49.5816 13.2397 49.2512 13.1251 48.8546 13.1251C48.4756 13.1251 48.154 13.2353 47.8896 13.4556C47.634 13.6759 47.4754 13.9888 47.4137 14.3942H50.2426Z" fill="white"/>
<path d="M53.2991 15.108C53.2991 14.3413 53.4533 13.6715 53.7617 13.0987C54.079 12.5259 54.5152 12.0852 55.0705 11.7768C55.6345 11.4683 56.2778 11.3141 57.0005 11.3141C57.9258 11.3141 58.697 11.5564 59.3139 12.0411C59.9396 12.5259 60.3494 13.2089 60.5433 14.0901H58.1373C57.9346 13.5261 57.5425 13.2441 56.9608 13.2441C56.5466 13.2441 56.2161 13.4071 55.9694 13.7332C55.7226 14.0505 55.5992 14.5088 55.5992 15.108C55.5992 15.7073 55.7226 16.17 55.9694 16.4961C56.2161 16.8133 56.5466 16.972 56.9608 16.972C57.5425 16.972 57.9346 16.6899 58.1373 16.1259H60.5433C60.3494 16.9896 59.9396 17.6682 59.3139 18.1617C58.6881 18.6552 57.917 18.902 57.0005 18.902C56.2778 18.902 55.6345 18.7478 55.0705 18.4393C54.5152 18.1308 54.079 17.6902 53.7617 17.1174C53.4533 16.5445 53.2991 15.8747 53.2991 15.108Z" fill="white"/>
<path d="M66.2866 11.3405C67.1327 11.3405 67.8113 11.6225 68.3224 12.1866C68.8336 12.7418 69.0891 13.5085 69.0891 14.4867V18.7962H66.8419V14.7908C66.8419 14.2972 66.7141 13.9139 66.4585 13.6407C66.2029 13.3675 65.8592 13.2309 65.4274 13.2309C64.9956 13.2309 64.6519 13.3675 64.3963 13.6407C64.1407 13.9139 64.0129 14.2972 64.0129 14.7908V18.7962H61.7524V9.01392H64.0129V12.4113C64.2421 12.0852 64.5549 11.8252 64.9515 11.6313C65.3481 11.4375 65.7931 11.3405 66.2866 11.3405Z" fill="white"/>
<path d="M75.1545 11.3405C76.0182 11.3405 76.7056 11.6225 77.2168 12.1866C77.7367 12.7418 77.9967 13.5085 77.9967 14.4867V18.7962H75.7494V14.7908C75.7494 14.2972 75.6216 13.9139 75.3661 13.6407C75.1105 13.3675 74.7668 13.2309 74.3349 13.2309C73.9031 13.2309 73.5594 13.3675 73.3038 13.6407C73.0483 13.9139 72.9205 14.2972 72.9205 14.7908V18.7962H70.66V11.4198H72.9205V12.3981C73.1496 12.072 73.4581 11.8164 73.8458 11.6313C74.2336 11.4375 74.6698 11.3405 75.1545 11.3405Z" fill="white"/>
<path d="M82.9252 18.902C82.2026 18.902 81.5504 18.7478 80.9688 18.4393C80.3959 18.1308 79.9421 17.6902 79.6072 17.1174C79.2811 16.5445 79.1181 15.8747 79.1181 15.108C79.1181 14.3501 79.2855 13.6847 79.6204 13.1119C79.9553 12.5303 80.4136 12.0852 80.9952 11.7768C81.5769 11.4683 82.229 11.3141 82.9517 11.3141C83.6743 11.3141 84.3265 11.4683 84.9081 11.7768C85.4898 12.0852 85.9481 12.5303 86.2829 13.1119C86.6178 13.6847 86.7853 14.3501 86.7853 15.108C86.7853 15.8659 86.6134 16.5357 86.2697 17.1174C85.9348 17.6902 85.4722 18.1308 84.8817 18.4393C84.3 18.7478 83.6479 18.902 82.9252 18.902ZM82.9252 16.9455C83.3571 16.9455 83.7228 16.7869 84.0224 16.4696C84.3309 16.1524 84.4851 15.6985 84.4851 15.108C84.4851 14.5176 84.3353 14.0637 84.0357 13.7464C83.7448 13.4292 83.3835 13.2705 82.9517 13.2705C82.511 13.2705 82.1453 13.4292 81.8545 13.7464C81.5636 14.0549 81.4182 14.5088 81.4182 15.108C81.4182 15.6985 81.5592 16.1524 81.8412 16.4696C82.1321 16.7869 82.4934 16.9455 82.9252 16.9455Z" fill="white"/>
<path d="M95.5182 18.7962L93.5881 15.2931H93.0462V18.7962H90.7856V9.51623H94.5796C95.3111 9.51623 95.9324 9.64402 96.4435 9.89959C96.9635 10.1552 97.3512 10.5077 97.6068 10.9571C97.8624 11.3978 97.9902 11.8913 97.9902 12.4377C97.9902 13.0546 97.8139 13.6054 97.4614 14.0901C97.1177 14.5748 96.6066 14.9185 95.928 15.1212L98.0695 18.7962H95.5182ZM93.0462 13.6935H94.4474C94.8616 13.6935 95.1701 13.5922 95.3728 13.3895C95.5843 13.1868 95.69 12.9004 95.69 12.5302C95.69 12.1777 95.5843 11.9001 95.3728 11.6974C95.1701 11.4947 94.8616 11.3934 94.4474 11.3934H93.0462V13.6935Z" fill="#FF2E00"/>
<path d="M100.546 10.6531C100.149 10.6531 99.8234 10.5385 99.5678 10.3094C99.3211 10.0714 99.1977 9.78062 99.1977 9.43692C99.1977 9.0844 99.3211 8.79358 99.5678 8.56444C99.8234 8.32649 100.149 8.20752 100.546 8.20752C100.934 8.20752 101.251 8.32649 101.498 8.56444C101.753 8.79358 101.881 9.0844 101.881 9.43692C101.881 9.78062 101.753 10.0714 101.498 10.3094C101.251 10.5385 100.934 10.6531 100.546 10.6531ZM101.67 11.4198V18.7962H99.4092V11.4198H101.67Z" fill="#FF2E00"/>
<path d="M102.858 15.0948C102.858 14.3369 102.999 13.6715 103.281 13.0987C103.572 12.5258 103.964 12.0852 104.458 11.7767C104.951 11.4683 105.502 11.3141 106.11 11.3141C106.595 11.3141 107.036 11.4154 107.432 11.6181C107.838 11.8208 108.155 12.094 108.384 12.4377V9.0139H110.645V18.7962H108.384V17.7387C108.173 18.0912 107.869 18.3732 107.472 18.5847C107.084 18.7962 106.63 18.902 106.11 18.902C105.502 18.902 104.951 18.7477 104.458 18.4393C103.964 18.122 103.572 17.677 103.281 17.1041C102.999 16.5225 102.858 15.8527 102.858 15.0948ZM108.384 15.108C108.384 14.544 108.225 14.0989 107.908 13.7729C107.6 13.4468 107.221 13.2837 106.771 13.2837C106.322 13.2837 105.939 13.4468 105.621 13.7729C105.313 14.0901 105.159 14.5308 105.159 15.0948C105.159 15.6588 105.313 16.1083 105.621 16.4432C105.939 16.7692 106.322 16.9323 106.771 16.9323C107.221 16.9323 107.6 16.7692 107.908 16.4432C108.225 16.1171 108.384 15.672 108.384 15.108Z" fill="#FF2E00"/>
<path d="M119.233 14.989C119.233 15.2005 119.22 15.4209 119.194 15.65H114.078C114.113 16.1083 114.258 16.4608 114.514 16.7076C114.778 16.9455 115.1 17.0645 115.479 17.0645C116.043 17.0645 116.435 16.8265 116.656 16.3506H119.061C118.938 16.8353 118.713 17.2716 118.387 17.6593C118.07 18.0471 117.669 18.3512 117.184 18.5715C116.7 18.7918 116.158 18.902 115.558 18.902C114.836 18.902 114.192 18.7477 113.628 18.4393C113.064 18.1308 112.624 17.6902 112.306 17.1173C111.989 16.5445 111.831 15.8747 111.831 15.108C111.831 14.3413 111.985 13.6715 112.293 13.0987C112.61 12.5258 113.051 12.0852 113.615 11.7767C114.179 11.4683 114.827 11.3141 115.558 11.3141C116.272 11.3141 116.907 11.4639 117.462 11.7635C118.017 12.0632 118.449 12.4906 118.757 13.0458C119.075 13.601 119.233 14.2488 119.233 14.989ZM116.92 14.3942C116.92 14.0064 116.788 13.6979 116.523 13.4688C116.259 13.2397 115.929 13.1251 115.532 13.1251C115.153 13.1251 114.831 13.2353 114.567 13.4556C114.311 13.6759 114.153 13.9888 114.091 14.3942H116.92Z" fill="#FF2E00"/>
<path d="M122.686 12.6492C122.951 12.2438 123.281 11.9266 123.678 11.6974C124.074 11.4595 124.515 11.3405 125 11.3405V13.7332H124.378C123.814 13.7332 123.391 13.8566 123.109 14.1033C122.827 14.3413 122.686 14.7643 122.686 15.3724V18.7962H120.426V11.4198H122.686V12.6492Z" fill="#FF2E00"/>
</svg>
